<svg width="42" height="34" viewBox="0 0 42 34" fill="none" xmlns="http://www.w3.org/2000/svg">
<path fill-rule="evenodd" clip-rule="evenodd" d="M41.0812 10.447C41.0812 10.415 41.0549 10.4002 41.0495 10.3689C41.0417 10.2999 41.0549 10.2297 41.0259 10.1638L36.9066 0.466904C36.7934 0.202268 36.5303 0.0273438 36.2381 0.0273438H5.83955C5.5473 0.0273438 5.28422 0.202268 5.17088 0.466904L1.04892 10.1638C1.01996 10.2297 1.03312 10.2999 1.0226 10.3689C1.01996 10.4002 0.993652 10.415 0.993652 10.447C0.993652 10.4612 1.00954 10.4728 1.00954 10.4891C1.01996 10.6471 1.06471 10.7981 1.17273 10.923L20.4926 32.7557C20.5084 32.7749 20.5374 32.7669 20.5531 32.7865C20.6057 32.8327 20.648 32.8747 20.7111 32.9084C20.7243 32.9141 20.7268 32.9369 20.7453 32.9425C20.84 32.9824 20.94 33.0028 21.0349 33.0028C21.1321 33.0028 21.2322 32.9824 21.3271 32.9425C21.3453 32.9369 21.3481 32.9141 21.3612 32.9055C21.4243 32.8747 21.4665 32.8327 21.5165 32.7865C21.5349 32.7669 21.564 32.7749 21.5798 32.7557L40.8996 10.923C41.0075 10.7981 41.0549 10.6471 41.0654 10.4891C41.0654 10.4728 41.0812 10.4612 41.0812 10.447ZM25.9649 1.47033L29.5182 9.72596H12.5567L16.1127 1.47033H25.9649ZM29.5077 11.168L21.0349 30.4754L12.5671 11.168H29.5077ZM10.9826 11.168L18.5132 28.3391L3.32046 11.168H10.9826ZM31.0923 11.168H38.7517L23.5589 28.3362L31.0923 11.168ZM39.265 9.72596H31.0948L27.5414 1.47033H35.7563L39.265 9.72596ZM6.31858 1.47033H14.5387L10.9826 9.72596H2.80975L6.31858 1.47033Z" fill="url(#paint0_linear_10_155)"/>
<path fill-rule="evenodd" clip-rule="evenodd" d="M41.0812 10.447C41.0812 10.415 41.0549 10.4002 41.0495 10.3689C41.0417 10.2999 41.0549 10.2297 41.0259 10.1638L36.9066 0.466904C36.7934 0.202268 36.5303 0.0273438 36.2381 0.0273438H5.83955C5.5473 0.0273438 5.28422 0.202268 5.17088 0.466904L1.04892 10.1638C1.01996 10.2297 1.03312 10.2999 1.0226 10.3689C1.01996 10.4002 0.993652 10.415 0.993652 10.447C0.993652 10.4612 1.00954 10.4728 1.00954 10.4891C1.01996 10.6471 1.06471 10.7981 1.17273 10.923L20.4926 32.7557C20.5084 32.7749 20.5374 32.7669 20.5531 32.7865C20.6057 32.8327 20.648 32.8747 20.7111 32.9084C20.7243 32.9141 20.7268 32.9369 20.7453 32.9425C20.84 32.9824 20.94 33.0028 21.0349 33.0028C21.1321 33.0028 21.2322 32.9824 21.3271 32.9425C21.3453 32.9369 21.3481 32.9141 21.3612 32.9055C21.4243 32.8747 21.4665 32.8327 21.5165 32.7865C21.5349 32.7669 21.564 32.7749 21.5798 32.7557L40.8996 10.923C41.0075 10.7981 41.0549 10.6471 41.0654 10.4891C41.0654 10.4728 41.0812 10.4612 41.0812 10.447ZM25.9649 1.47033L29.5182 9.72596H12.5567L16.1127 1.47033H25.9649ZM29.5077 11.168L21.0349 30.4754L12.5671 11.168H29.5077ZM10.9826 11.168L18.5132 28.3391L3.32046 11.168H10.9826ZM31.0923 11.168H38.7517L23.5589 28.3362L31.0923 11.168ZM39.265 9.72596H31.0948L27.5414 1.47033H35.7563L39.265 9.72596ZM6.31858 1.47033H14.5387L10.9826 9.72596H2.80975L6.31858 1.47033Z" fill="#FF3B4A"/>
<defs>
<linearGradient id="paint0_linear_10_155" x1="17.3931" y1="-13.4626" x2="-8.10654" y2="24.4255" gradientUnits="userSpaceOnUse">
<stop stop-color="white"/>
<stop offset="1" stop-color="white"/>
</linearGradient>
</defs>
</svg>
