<svg width="36" height="38" viewBox="0 0 36 38" fill="none" xmlns="http://www.w3.org/2000/svg">
<path fill-rule="evenodd" clip-rule="evenodd" d="M35.6628 13.068C34.7217 10.2543 33.3319 7.71168 31.5287 5.50944C29.7363 3.32088 27.5903 1.54784 25.1479 0.23984C24.8733 0.0939202 24.5442 0.14572 24.3185 0.37836L8.63062 16.34L6.81914 18.1834C6.72126 18.2705 6.63694 18.3868 6.58525 18.528C6.57722 18.5487 6.56897 18.5765 6.56068 18.6011L2.34233 30.811L0.541891 36.0276C0.438509 36.3227 0.498376 36.6539 0.688826 36.8904C0.832785 37.0666 1.0342 37.1595 1.24077 37.1595C1.30885 37.1595 1.37957 37.1503 1.44761 37.1264L6.27243 35.6022L17.6196 32.0151C17.6903 31.9935 17.7611 31.9582 17.8263 31.9121C17.8616 31.8845 17.897 31.8544 17.9295 31.8242L19.7818 29.939L35.4669 13.9764C35.6926 13.7468 35.7689 13.3862 35.6628 13.068ZM3.44118 32.2744C3.47102 32.2963 3.50643 32.3093 3.53654 32.3268C3.85727 32.5514 4.15653 32.7995 4.40398 33.1055C4.65147 33.408 4.84735 33.7609 5.0187 34.1353C5.03784 34.169 5.04582 34.2111 5.05942 34.2487L2.47834 35.0659L3.44118 32.2744ZM17.0458 30.4599L6.53902 33.7813C6.50911 33.7091 6.45749 33.6549 6.42486 33.5842C6.18268 32.9972 5.89172 32.4449 5.51093 31.9781C5.12747 31.5125 4.65965 31.1425 4.15653 30.8184C4.09395 30.7778 4.05586 30.715 3.99328 30.6786L7.91527 19.3272L9.09019 18.1382L10.0394 19.2946L18.2151 29.2697L17.0458 30.4599ZM19.3221 28.1426L16.9477 25.2465L29.4182 12.5631C29.5786 12.3961 29.66 12.1709 29.66 11.9412C29.66 11.744 29.5976 11.5413 29.4643 11.3817C29.1869 11.0414 28.7109 11.0192 28.4062 11.3288L15.936 24.0131L15.4491 23.4158L13.5806 21.1316L26.0455 8.44872C26.2086 8.2806 26.2904 8.05652 26.2904 7.82624C26.2904 7.62908 26.2249 7.42692 26.0945 7.2662C25.8143 6.9276 25.3384 6.90656 25.0337 7.2144L12.5661 19.9005L10.1971 17.0068L24.9495 1.9942C27.0301 3.18144 28.8714 4.7384 30.4217 6.63928C31.9828 8.54164 33.2067 10.7234 34.0771 13.129L19.3221 28.1426Z" fill="url(#paint0_linear_10_145)"/>
<path fill-rule="evenodd" clip-rule="evenodd" d="M35.6628 13.068C34.7217 10.2543 33.3319 7.71168 31.5287 5.50944C29.7363 3.32088 27.5903 1.54784 25.1479 0.23984C24.8733 0.0939202 24.5442 0.14572 24.3185 0.37836L8.63062 16.34L6.81914 18.1834C6.72126 18.2705 6.63694 18.3868 6.58525 18.528C6.57722 18.5487 6.56897 18.5765 6.56068 18.6011L2.34233 30.811L0.541891 36.0276C0.438509 36.3227 0.498376 36.6539 0.688826 36.8904C0.832785 37.0666 1.0342 37.1595 1.24077 37.1595C1.30885 37.1595 1.37957 37.1503 1.44761 37.1264L6.27243 35.6022L17.6196 32.0151C17.6903 31.9935 17.7611 31.9582 17.8263 31.9121C17.8616 31.8845 17.897 31.8544 17.9295 31.8242L19.7818 29.939L35.4669 13.9764C35.6926 13.7468 35.7689 13.3862 35.6628 13.068ZM3.44118 32.2744C3.47102 32.2963 3.50643 32.3093 3.53654 32.3268C3.85727 32.5514 4.15653 32.7995 4.40398 33.1055C4.65147 33.408 4.84735 33.7609 5.0187 34.1353C5.03784 34.169 5.04582 34.2111 5.05942 34.2487L2.47834 35.0659L3.44118 32.2744ZM17.0458 30.4599L6.53902 33.7813C6.50911 33.7091 6.45749 33.6549 6.42486 33.5842C6.18268 32.9972 5.89172 32.4449 5.51093 31.9781C5.12747 31.5125 4.65965 31.1425 4.15653 30.8184C4.09395 30.7778 4.05586 30.715 3.99328 30.6786L7.91527 19.3272L9.09019 18.1382L10.0394 19.2946L18.2151 29.2697L17.0458 30.4599ZM19.3221 28.1426L16.9477 25.2465L29.4182 12.5631C29.5786 12.3961 29.66 12.1709 29.66 11.9412C29.66 11.744 29.5976 11.5413 29.4643 11.3817C29.1869 11.0414 28.7109 11.0192 28.4062 11.3288L15.936 24.0131L15.4491 23.4158L13.5806 21.1316L26.0455 8.44872C26.2086 8.2806 26.2904 8.05652 26.2904 7.82624C26.2904 7.62908 26.2249 7.42692 26.0945 7.2662C25.8143 6.9276 25.3384 6.90656 25.0337 7.2144L12.5661 19.9005L10.1971 17.0068L24.9495 1.9942C27.0301 3.18144 28.8714 4.7384 30.4217 6.63928C31.9828 8.54164 33.2067 10.7234 34.0771 13.129L19.3221 28.1426Z" fill="#FF3B4A"/>
<defs>
<linearGradient id="paint0_linear_10_145" x1="17.2623" y1="-17.4614" x2="-18.019" y2="17.7987" gradientUnits="userSpaceOnUse">
<stop stop-color="white"/>
<stop offset="1" stop-color="white"/>
</linearGradient>
</defs>
</svg>
