<svg width="41" height="42" viewBox="0 0 41 42" fill="none" xmlns="http://www.w3.org/2000/svg">
<path fill-rule="evenodd" clip-rule="evenodd" d="M20.7112 26.658C17.6518 26.658 15.1619 24.1639 15.1619 21.0927C15.1619 18.0235 17.6518 15.5294 20.7112 15.5294C23.7676 15.5294 26.2551 18.0235 26.2551 21.0927C26.2551 24.1639 23.7676 26.658 20.7112 26.658ZM20.7112 16.9715C18.4429 16.9715 16.6001 18.8209 16.6001 21.0927C16.6001 23.3644 18.4429 25.2156 20.7112 25.2156C22.9741 25.2156 24.8169 23.3644 24.8169 21.0927C24.8169 18.8209 22.9741 16.9715 20.7112 16.9715ZM18.294 41.1896C17.9652 41.1896 17.6782 40.9635 17.5971 40.6444L16.3599 35.6818C15.3967 35.3834 14.4467 34.9776 13.5278 34.4765L9.127 37.1262C8.84518 37.2961 8.48247 37.2493 8.25001 37.0197L4.8307 33.5891C4.59833 33.3567 4.55399 32.9941 4.72363 32.7102L7.3652 28.3029C6.87457 27.3909 6.48035 26.4419 6.18812 25.4645L1.21285 24.2175C0.89452 24.1379 0.66748 23.8472 0.66748 23.5195V18.6755C0.66748 18.3432 0.89452 18.0543 1.21285 17.9761L6.15935 16.7376C6.46212 15.7615 6.86666 14.8084 7.36258 13.8931L4.72109 9.47834C4.55146 9.19388 4.59592 8.82983 4.82807 8.59658L8.24223 5.17365C8.47718 4.93833 8.83993 4.8898 9.12193 5.06594L13.5227 7.71214C14.4284 7.2255 15.3759 6.82651 16.3494 6.53466L17.5919 1.54475C17.6728 1.2239 17.9599 0.998047 18.2889 0.998047H23.1204C23.4491 0.998047 23.7389 1.2239 23.8173 1.54475L25.0545 6.51129C26.0255 6.81436 26.9756 7.21872 27.8839 7.70858L32.2899 5.05735C32.5666 4.89543 32.9321 4.93833 33.1671 5.16832L36.5811 8.59152C36.816 8.82477 36.8604 9.18768 36.6907 9.4739L34.0492 13.8931C34.5347 14.7989 34.9288 15.7484 35.2212 16.7193L40.2015 17.9711C40.5225 18.0492 40.747 18.3399 40.747 18.6702V23.5103C40.747 23.8398 40.5225 24.131 40.2015 24.2083L35.2212 25.4595C34.9288 26.4399 34.5347 27.3888 34.0518 28.2887L36.696 32.7046C36.8656 32.9905 36.8213 33.3537 36.5864 33.5867L33.1722 37.0173C32.9373 37.2493 32.5744 37.289 32.2951 37.1262L27.8892 34.4741C26.9808 34.9711 26.0307 35.3718 25.0572 35.6785L23.825 40.6415C23.7441 40.9611 23.4571 41.1864 23.1255 41.1864L18.294 41.1896ZM13.5149 32.9228C13.6375 32.9228 13.7627 32.9541 13.8748 33.0193C14.9296 33.629 16.0337 34.097 17.1535 34.4093C17.4014 34.4794 17.5919 34.6816 17.6571 34.9323L18.8579 39.7473L22.5644 39.7443L23.7625 34.9272C23.825 34.6789 24.0156 34.4794 24.2636 34.4093C25.3991 34.0896 26.5005 33.621 27.5421 33.0175C27.769 32.8837 28.0458 32.8881 28.2703 33.0207L32.551 35.6009L35.1742 32.9657L32.6033 28.6767C32.4674 28.4505 32.4674 28.1702 32.5954 27.9426C33.1879 26.9149 33.642 25.8173 33.9501 24.6733C34.0179 24.422 34.2164 24.2267 34.4694 24.1639L39.3087 22.9465V19.2329L34.4694 18.0172C34.2164 17.9557 34.0179 17.7595 33.9501 17.5067C33.6446 16.3736 33.1879 15.2707 32.5954 14.2344C32.4674 14.0107 32.4701 13.7312 32.6033 13.5045L35.1689 9.21461L32.5483 6.58706L28.2677 9.16251C28.0458 9.29777 27.769 9.30402 27.5395 9.16845C26.4953 8.56521 25.3938 8.09753 24.2611 7.77695C24.013 7.70857 23.8225 7.51084 23.7597 7.25955L22.5592 2.44015H18.8527L17.644 7.28798C17.5816 7.53988 17.3857 7.74113 17.1352 7.80832C15.9997 8.11795 14.9008 8.57555 13.8672 9.1699C13.6428 9.30401 13.366 9.30102 13.1389 9.16251L8.86345 6.58882L6.24282 9.22024L8.80863 13.5045C8.94438 13.7312 8.94438 14.0107 8.814 14.2368C8.21093 15.29 7.74111 16.3976 7.42519 17.53C7.35471 17.7819 7.15635 17.9729 6.90575 18.0359L2.10574 19.2386V22.9539L6.93972 24.1689C7.19295 24.2317 7.39126 24.428 7.45912 24.6799C7.76704 25.8156 8.22142 26.9173 8.81916 27.9547C8.94954 28.1821 8.947 28.4624 8.81116 28.6865L6.24544 32.9707L8.86861 35.6033L13.1441 33.0272C13.2591 32.9577 13.3868 32.9228 13.5149 32.9228Z" fill="url(#paint0_linear_10_139)"/>
<path fill-rule="evenodd" clip-rule="evenodd" d="M20.7112 26.658C17.6518 26.658 15.1619 24.1639 15.1619 21.0927C15.1619 18.0235 17.6518 15.5294 20.7112 15.5294C23.7676 15.5294 26.2551 18.0235 26.2551 21.0927C26.2551 24.1639 23.7676 26.658 20.7112 26.658ZM20.7112 16.9715C18.4429 16.9715 16.6001 18.8209 16.6001 21.0927C16.6001 23.3644 18.4429 25.2156 20.7112 25.2156C22.9741 25.2156 24.8169 23.3644 24.8169 21.0927C24.8169 18.8209 22.9741 16.9715 20.7112 16.9715ZM18.294 41.1896C17.9652 41.1896 17.6782 40.9635 17.5971 40.6444L16.3599 35.6818C15.3967 35.3834 14.4467 34.9776 13.5278 34.4765L9.127 37.1262C8.84518 37.2961 8.48247 37.2493 8.25001 37.0197L4.8307 33.5891C4.59833 33.3567 4.55399 32.9941 4.72363 32.7102L7.3652 28.3029C6.87457 27.3909 6.48035 26.4419 6.18812 25.4645L1.21285 24.2175C0.89452 24.1379 0.66748 23.8472 0.66748 23.5195V18.6755C0.66748 18.3432 0.89452 18.0543 1.21285 17.9761L6.15935 16.7376C6.46212 15.7615 6.86666 14.8084 7.36258 13.8931L4.72109 9.47834C4.55146 9.19388 4.59592 8.82983 4.82807 8.59658L8.24223 5.17365C8.47718 4.93833 8.83993 4.8898 9.12193 5.06594L13.5227 7.71214C14.4284 7.2255 15.3759 6.82651 16.3494 6.53466L17.5919 1.54475C17.6728 1.2239 17.9599 0.998047 18.2889 0.998047H23.1204C23.4491 0.998047 23.7389 1.2239 23.8173 1.54475L25.0545 6.51129C26.0255 6.81436 26.9756 7.21872 27.8839 7.70858L32.2899 5.05735C32.5666 4.89543 32.9321 4.93833 33.1671 5.16832L36.5811 8.59152C36.816 8.82477 36.8604 9.18768 36.6907 9.4739L34.0492 13.8931C34.5347 14.7989 34.9288 15.7484 35.2212 16.7193L40.2015 17.9711C40.5225 18.0492 40.747 18.3399 40.747 18.6702V23.5103C40.747 23.8398 40.5225 24.131 40.2015 24.2083L35.2212 25.4595C34.9288 26.4399 34.5347 27.3888 34.0518 28.2887L36.696 32.7046C36.8656 32.9905 36.8213 33.3537 36.5864 33.5867L33.1722 37.0173C32.9373 37.2493 32.5744 37.289 32.2951 37.1262L27.8892 34.4741C26.9808 34.9711 26.0307 35.3718 25.0572 35.6785L23.825 40.6415C23.7441 40.9611 23.4571 41.1864 23.1255 41.1864L18.294 41.1896ZM13.5149 32.9228C13.6375 32.9228 13.7627 32.9541 13.8748 33.0193C14.9296 33.629 16.0337 34.097 17.1535 34.4093C17.4014 34.4794 17.5919 34.6816 17.6571 34.9323L18.8579 39.7473L22.5644 39.7443L23.7625 34.9272C23.825 34.6789 24.0156 34.4794 24.2636 34.4093C25.3991 34.0896 26.5005 33.621 27.5421 33.0175C27.769 32.8837 28.0458 32.8881 28.2703 33.0207L32.551 35.6009L35.1742 32.9657L32.6033 28.6767C32.4674 28.4505 32.4674 28.1702 32.5954 27.9426C33.1879 26.9149 33.642 25.8173 33.9501 24.6733C34.0179 24.422 34.2164 24.2267 34.4694 24.1639L39.3087 22.9465V19.2329L34.4694 18.0172C34.2164 17.9557 34.0179 17.7595 33.9501 17.5067C33.6446 16.3736 33.1879 15.2707 32.5954 14.2344C32.4674 14.0107 32.4701 13.7312 32.6033 13.5045L35.1689 9.21461L32.5483 6.58706L28.2677 9.16251C28.0458 9.29777 27.769 9.30402 27.5395 9.16845C26.4953 8.56521 25.3938 8.09753 24.2611 7.77695C24.013 7.70857 23.8225 7.51084 23.7597 7.25955L22.5592 2.44015H18.8527L17.644 7.28798C17.5816 7.53988 17.3857 7.74113 17.1352 7.80832C15.9997 8.11795 14.9008 8.57555 13.8672 9.1699C13.6428 9.30401 13.366 9.30102 13.1389 9.16251L8.86345 6.58882L6.24282 9.22024L8.80863 13.5045C8.94438 13.7312 8.94438 14.0107 8.814 14.2368C8.21093 15.29 7.74111 16.3976 7.42519 17.53C7.35471 17.7819 7.15635 17.9729 6.90575 18.0359L2.10574 19.2386V22.9539L6.93972 24.1689C7.19295 24.2317 7.39126 24.428 7.45912 24.6799C7.76704 25.8156 8.22142 26.9173 8.81916 27.9547C8.94954 28.1821 8.947 28.4624 8.81116 28.6865L6.24544 32.9707L8.86861 35.6033L13.1441 33.0272C13.2591 32.9577 13.3868 32.9228 13.5149 32.9228Z" fill="#FF3B4A"/>
<defs>
<linearGradient id="paint0_linear_10_139" x1="21.1627" y1="-18.641" x2="-19.0261" y2="20.525" gradientUnits="userSpaceOnUse">
<stop stop-color="white"/>
<stop offset="1" stop-color="white"/>
</linearGradient>
</defs>
</svg>
